<svg width="24" height="26" viewBox="0 0 24 26" fill="none" xmlns="http://www.w3.org/2000/svg">
<path d="M6.16667 1.33337H17.8333M3.83333 6.00004H20.1667M3.83333 10.6667H20.1667C21.4553 10.6667 22.5 11.7114 22.5 13V22.3334C22.5 23.622 21.4553 24.6667 20.1667 24.6667H3.83333C2.54467 24.6667 1.5 23.622 1.5 22.3334V13C1.5 11.7114 2.54467 10.6667 3.83333 10.6667Z" stroke="#FF4848" stroke-width="2.33333" stroke-linecap="round" stroke-linejoin="round"/>
<path d="M6.16667 1.33337H17.8333M3.83333 6.00004H20.1667M3.83333 10.6667H20.1667C21.4553 10.6667 22.5 11.7114 22.5 13V22.3334C22.5 23.622 21.4553 24.6667 20.1667 24.6667H3.83333C2.54467 24.6667 1.5 23.622 1.5 22.3334V13C1.5 11.7114 2.54467 10.6667 3.83333 10.6667Z" stroke="black" stroke-opacity="0.2" stroke-width="2.33333" stroke-linecap="round" stroke-linejoin="round"/>
</svg>
