<svg width="24" height="25" viewBox="0 0 24 25" fill="none" xmlns="http://www.w3.org/2000/svg">
<path fill-rule="evenodd" clip-rule="evenodd" d="M12 5.95455C8.38505 5.95455 5.45455 8.88505 5.45455 12.5C5.45455 16.115 8.38505 19.0455 12 19.0455C15.615 19.0455 18.5455 16.115 18.5455 12.5C18.5455 8.88505 15.615 5.95455 12 5.95455ZM4 12.5C4 8.08172 7.58172 4.5 12 4.5C16.4183 4.5 20 8.08172 20 12.5C20 16.9183 16.4183 20.5 12 20.5C7.58172 20.5 4 16.9183 4 12.5Z" fill="white"/>
<path fill-rule="evenodd" clip-rule="evenodd" d="M12 11.5C12.5523 11.5 13 11.8731 13 12.3333V15.6667C13 16.1269 12.5523 16.5 12 16.5C11.4477 16.5 11 16.1269 11 15.6667V12.3333C11 11.8731 11.4477 11.5 12 11.5Z" fill="white"/>
<path fill-rule="evenodd" clip-rule="evenodd" d="M11 9.5C11 8.94772 11.4455 8.5 11.995 8.5H12.005C12.5545 8.5 13 8.94772 13 9.5C13 10.0523 12.5545 10.5 12.005 10.5H11.995C11.4455 10.5 11 10.0523 11 9.5Z" fill="white"/>
</svg>
