<svg width="23" height="24" viewBox="0 0 23 24" fill="none" xmlns="http://www.w3.org/2000/svg">
<g id="lucide/square-plus">
<g id="Vector">
<path d="M15.767 6.29248H7.1209C6.43874 6.29248 5.88574 6.84548 5.88574 7.52763V16.1737C5.88574 16.8559 6.43874 17.4089 7.1209 17.4089H11.4439H15.767C16.4491 17.4089 17.0021 16.8559 17.0021 16.1737V7.52763C17.0021 6.84548 16.4491 6.29248 15.767 6.29248Z" fill="white"/>
<path d="M8.97363 11.8507H13.9142H8.97363Z" fill="white"/>
<path d="M8.97363 11.8507H13.9142M7.1209 6.29248H15.767C16.4491 6.29248 17.0021 6.84548 17.0021 7.52763V16.1737C17.0021 16.8559 16.4491 17.4089 15.767 17.4089H11.4439H7.1209C6.43874 17.4089 5.88574 16.8559 5.88574 16.1737V7.52763C5.88574 6.84548 6.43874 6.29248 7.1209 6.29248Z" stroke="#06032F" stroke-width="1.23515" stroke-linecap="round" stroke-linejoin="round"/>
</g>
</g>
</svg>
